<!DOCTYPE svg PUBLIC "-//W3C//DTD SVG 1.1//EN" "http://www.w3.org/Graphics/SVG/1.1/DTD/svg11.dtd">
<!-- Uploaded to: SVG Repo, www.svgrepo.com, Transformed by: SVG Repo Mixer Tools -->
<svg width="800px" height="800px" viewBox="-52.05 0 684.34 684.34" id="Layer_1" version="1.1" xml:space="preserve" xmlns="http://www.w3.org/2000/svg" xmlns:xlink="http://www.w3.org/1999/xlink" fill="#26a269">
<g id="SVGRepo_bgCarrier" stroke-width="0"/>
<g id="SVGRepo_tracerCarrier" stroke-linecap="round" stroke-linejoin="round"/>
<g id="SVGRepo_iconCarrier"> <style type="text/css"> .st0{clip-path:url(#SVGID_2_);} .st1{clip-path:url(#SVGID_4_);} .st2{clip-path:url(#SVGID_6_);} .st3{clip-path:url(#SVGID_8_);} .st4{clip-path:url(#SVGID_10_);} .st5{clip-path:url(#SVGID_12_);} .st6{clip-path:url(#SVGID_14_);} .st7{clip-path:url(#SVGID_16_);} .st8{clip-path:url(#SVGID_18_);} .st9{clip-path:url(#SVGID_20_);} .st10{clip-path:url(#SVGID_22_);} .st11{clip-path:url(#SVGID_24_);} .st12{clip-path:url(#SVGID_26_);} .st13{clip-path:url(#SVGID_28_);} .st14{clip-path:url(#SVGID_30_);} .st15{clip-path:url(#SVGID_32_);} .st16{clip-path:url(#SVGID_34_);} .st17{clip-path:url(#SVGID_36_);} .st18{clip-path:url(#SVGID_38_);} .st19{clip-path:url(#SVGID_40_);} </style> <g> <defs> <rect height="684.34" id="SVGID_19_" width="580.24" y="0"/> </defs> <clipPath id="SVGID_2_"> <use style="overflow:visible;" xlink:href="#SVGID_19_"/> </clipPath> <g class="st0"> <path d="M88.7,485.83c7.09,7.13,14.85,13.63,21.14,21.53c10.74,13.48,20.8,27.63,30.68,41.89c7.08,10.22,13.39,21.09,20.06,31.66 c2.63,4.16,5.31,8.28,8.33,12.97c0-1.8,0.24-2.93-0.04-3.88c-5.1-17.46-7.92-35.82-16.38-51.97c-4.29-8.19-8.63-16.55-14.16-23.73 c-10.4-13.5-21.08-26.87-32.72-39.06c-16.51-17.28-34.44-32.82-53.54-46.68c-0.27-0.2-0.37-0.67-0.29-1.36 c37.95,18.42,69.95,45.49,97.75,80.62c-0.24-2.04-0.13-3.25-0.53-4.21c-4.17-10.03-8.11-20.18-12.71-29.97 c-6.23-13.23-12.78-26.28-19.57-39.18c-4.46-8.46-9.32-16.7-14.49-24.65c-3.29-5.05-7.53-9.35-11.26-14.07 c-3.91-4.96-7.69-10.04-11.55-15.05c-6.68-8.67-13.37-17.31-20.06-25.98c-0.3-0.4-0.55-0.84-1.54-2.37 c1.85,0.59,2.84,0.61,3.44,1.15c8.67,7.65,17.78,14.81,25.8,23.21c12.83,13.44,25.26,27.38,37.26,41.72 c13.58,16.22,26.96,32.71,39.6,49.81c17.23,23.3,30.21,49.56,41.01,76.98c5.63,14.28,10.43,29.05,14.31,44.01 c3.27,12.61,4.65,25.79,6.4,38.9c0.25-1.09,0.5-2.19,0.82-3.57c2.95,0,5.83,0,9.56,0c-0.6-2.65-1.13-4.79-1.55-6.95 c-2.64-13.55-5.11-27.13-7.92-40.64c-3.77-18.17-7.55-36.35-11.76-54.41c-4.49-19.29-9.43-38.46-14.29-57.64 c-1.64-6.46-4.57-12.04-9.41-16.55c-13.98-13.06-27.5-26.69-41.67-39.49c-8.5-7.67-17.86-14.2-26.85-21.23 c-7.47-5.84-14.8-11.92-22.48-17.41c-7.33-5.24-14.94-10.05-22.6-14.71c-7.56-4.6-15.11-9.4-23.09-12.98 c-11.47-5.14-23.33-9.24-35.37-13.43c2.15,0,4.3-0.02,6.45,0.01c2.17,0.03,4.36-0.06,6.51,0.18c11.59,1.33,22.92,4.09,33.89,8.32 c19.77,7.64,38.72,17.26,56.23,29.93c13.92,10.07,27.84,20.18,41.25,31.03c8.5,6.88,16.06,15.15,24.06,22.77 c0.63,0.6,1.44,0.99,2.64,0.99c-35.11-51.38-72.97-100.15-114.22-145.89c20.16,12.47,36.91,29.84,54.51,45.96 c17.88,16.38,34.62,34.07,50.15,53.27c-2.02-5.55-4.25-11.02-6.03-16.66c-4.96-15.69-9.68-31.47-14.59-47.19 c-6.86-21.98-13.57-44.02-20.8-65.85c-6.7-20.25-13.73-40.39-21.1-60.35c-10.94-29.61-23.57-58.38-37.41-86.5 c-1.42-2.89-2.82-5.8-3.48-9.22c4.31,6.81,9.02,13.36,12.86,20.47c8.21,15.22,16.53,30.42,23.77,46.2 c11.38,24.8,22.53,49.77,32.64,75.2c15.56,39.12,29.63,78.94,41.93,119.44c7.97,26.27,15.28,52.77,22.98,79.14 c0.49,1.69,1.58,3.34,2.76,4.58c11.87,12.42,23.89,24.67,32.86,39.93c0.58,0.98,1.13,1.97,2.53,2.87 c-0.79-7.47-0.94-15.1-2.5-22.37c-4.7-22.04-9.62-44.04-15.11-65.87c-2.83-11.23-6.96-22.09-10.66-33.05 c-3.66-10.86-7.53-21.64-10.93-32.64c8.2,9.21,14.94,19.45,21.09,30.27c6.93,12.18,10.36,25.54,13.01,39.34 c3.39,17.69,7.47,35.24,10.49,53c1.85,10.89,2.32,22.07,3.32,33.12c0.39,4.26,0.53,8.55,1.58,12.88 c0.7-6.17,1.61-12.33,2.04-18.52c0.52-7.5,0.68-15.04,0.93-22.56c0.29-9.05,0.43-18.11,0.78-27.17 c0.26-6.83-1.01-12.93-3.77-19.32c-4.18-9.67-6.73-20.17-9.98-30.32c-0.76-2.37-1.53-4.74-2.3-7.11c0.45-0.25,0.9-0.49,1.35-0.74 c5.34,8.17,10.69,16.34,16.03,24.5c0.27-0.09,0.53-0.17,0.8-0.26c-0.28-1.07-0.35-2.28-0.87-3.19 c-4.29-7.59-8.64-15.13-13.01-22.66c-7.72-13.28-15.93-26.24-23.06-39.89c-6.67-12.78-12.31-26.21-18.19-39.48 c-2.42-5.45-4.27-11.21-6.13-16.94c27.31,27.26,44.14,62.84,64.92,96.8c0-2.71,0.04-4.23-0.01-5.74 c-0.13-4.85-0.79-9.76-0.3-14.53c0.46-4.53,1.95-8.98,3.3-13.35c0.83-2.67,2.24-5.13,2.98-6.78 c-7.72-14.62-14.95-28.33-22.12-41.93c1.17,16.53,2.35,33.18,3.53,49.83c-0.53,0.1-1.06,0.19-1.59,0.29 c-13.09-42.66-26.18-85.32-39.26-127.98c0.38-0.16,0.75-0.32,1.13-0.47c2.81,3.63,5.64,7.24,8.43,10.89 c2.75,3.6,5.37,7.33,8.23,10.83c2.63,3.22,3.75,8.06,7.8,9.74c-13.2-30.56-19.75-63.07-26.84-95.39c0.36-0.13,0.73-0.26,1.09-0.4 c2.64,7.54,5.38,15.04,7.92,22.62c6.82,20.39,14.39,40.37,23.64,59.65c7.37,15.35,13.43,31.43,20.13,47.16 c3.96,9.29,8.04,18.51,12.46,27.65c0.96-6.47,0.01-12.75-2.12-18.61c-10.16-27.93-20.34-55.83-26.76-85.15 c-1.26-5.76-2.19-11.61-3.24-17.43c-0.06-0.34,0.25-0.75,0.67-1.87c13.93,27.32,28.18,53.82,35.69,83.78 c0.68-4.34,1.39-8.93,2.12-13.52c0.73-4.59,1.53-9.17,2.15-13.78c0.13-0.99-0.13-2.21-0.58-3.09c-4.3-8.49-8.89-16.8-12.97-25.41 c-4.91-10.36-9.77-20.78-13.97-31.5c-6.28-16.02-11.99-32.32-17.9-48.51c-0.51-1.39-0.68-2.92-0.23-5.04 c3.99,5.11,8.06,10.14,11.94,15.34c3.94,5.28,7.86,10.6,11.46,16.16c3.69,5.68,6.99,11.67,10.85,17.32 c-3.48-13.57-1.98-26.95-0.19-40.34c5.38,28.72,12.29,57.1,14.9,86.9c4.64-12.18,7.2-24.52,6.2-37.17 c-1.01-12.74-3.63-25.33-5.32-38.01c-1.11-8.35-2.22-16.73-2.62-25.14c-0.67-14.15-0.77-28.34-1.11-42.51 c-0.02-0.8,0.06-1.59,0.57-2.49c9.89,25.56,16.12,52.08,17.84,80.15c2.61-8.67,5.16-17.21,7.74-25.74 c6.17-20.37,11.95-41,22.98-59.02c6.73-10.99,14.45-21.24,21.75-31.81c0.51-0.73,1.23-1.29,2.4-1.6 c-10.44,21.45-19.97,43.25-26.06,66.84c15.16-19.03,31.77-36.16,52.43-47.72c20.5-11.46,41.89-19.74,65.56-18.56 c-3.25,1.07-6.63,1.8-9.71,3.29c-9.19,4.44-18.74,8.33-27.27,14c-12.03,8-23.74,16.79-34.74,26.39 c-10.58,9.23-20.54,19.46-29.97,30.1c-11.8,13.32-22.83,27.45-34.05,41.37c-2.05,2.54-3.38,5.78-5.37,9.28 c15.4-12.78,29.65-25.64,44.86-36.93c15.28-11.35,31.37-21.54,51.2-24.24c-18.21,11.89-34.77,24.74-50.63,38.59 c-17.64,15.41-35.26,30.91-50.11,49.7c-4.03,5.1-7.4,10.62-7.84,17.7c30.04-31.13,59.86-62.2,97-82.99 c0.26,0.28,0.52,0.57,0.79,0.85c-1.56,2.21-3,4.53-4.7,6.6c-8.71,10.61-17.05,21.66-26.37,31.6 c-10.67,11.37-22.3,21.65-33.4,32.53c-12.41,12.16-24.39,24.89-37.23,36.48c-4.84,4.37-5.34,9-5.47,14.76 c-0.15,6.75-0.74,13.49-0.76,20.47c12.46-23.7,27.4-45.28,44.65-65.03c-12.31,37.28-31.49,70.45-51.2,103.12 c-0.32,5.9-0.64,11.68-0.95,17.47c0.27,0.24,0.53,0.49,0.8,0.73c21.61-30.96,43.62-61.49,73.28-84.1 c-2.05,2.62-4.24,5.13-6.11,7.89c-9.2,13.53-18.44,27.05-27.44,40.74c-10.02,15.25-19.76,30.72-29.72,46.02 c-5.18,7.96-10.5,15.83-15.91,23.61c-4.14,5.95-4.9,12.69-4.71,19.76c0.32,0.2,0.64,0.41,0.96,0.61 c8.36-14.66,16.46-29.51,25.15-43.94c8.89-14.74,18.36-29.06,27.58-43.57c0.36,0.04,0.72,0.08,1.09,0.12 c0.09,1.04,0.56,2.27,0.21,3.08c-8.95,20.49-17.48,41.23-27.16,61.31c-9.99,20.75-21.17,40.82-31.64,61.3 c-1.13,2.22-1.64,5.36-1.26,7.85c1.03,6.68,1.16,13.09-0.26,19.82c-1.1,5.2-0.51,10.81-0.85,16.22 c-0.46,7.33-1.1,14.65-1.61,21.99c-0.07,1,0.18,2.03,0.93,3.08c3.49-11.41,6.65-22.95,10.54-34.2 c10.46-30.24,20.95-60.47,32-90.46c6.02-16.34,12.72-32.43,19.98-48.15c4.91-10.62,11.35-20.4,17.1-30.56 c0.46,0.28,0.93,0.56,1.39,0.84c-1.6,3.96-3.35,7.86-4.79,11.89c-5.02,14.06-9.7,28.26-14.95,42.22 c-6.28,16.7-12.69,33.36-19.6,49.77c-13.78,32.75-27.07,65.72-38,99.76c-1.11,3.45-1.67,7.1-2.49,10.66 c0.38,0.1,0.76,0.21,1.14,0.31c4.61-12.21,9.22-24.43,13.83-36.64c9.26-24.56,20.42-47.95,35.54-68.92 c3.61-5.01,7.49-9.93,10.3-15.46c2.28-4.47,3.09-9.82,4.65-14.75c7.18-22.79,14.51-45.53,21.56-68.37 c13.19-42.73,29.24-84.14,47.42-124.61c9.6-21.37,20.35-42.04,32.92-61.4c8.64-13.29,18.83-25.42,28.71-37.69 c11.33-14.07,24.91-25.44,38.75-36.37c4.33-3.42,9.2-6.04,14.12-8.52c-6.28,5.59-12.66,11.06-18.83,16.8 c-17.67,16.42-34.28,34.04-48.49,54.11c-12.85,18.16-23.73,37.76-33.13,58.29c-7.74,16.92-15.51,33.84-22.49,51.14 c-7.18,17.79-13.69,35.93-20,54.12c-6.78,19.55-13.21,39.25-19.39,59.04c-7.2,23.05-14.24,46.16-20.83,69.42 c-7.84,27.63-15.48,55.33-22.55,83.2c-6.89,27.16-13.22,54.49-19.3,81.88c-5.08,22.91-9.46,46.01-14.12,69.03 c-0.24,1.16-0.26,2.38-0.4,3.75c5.26,1.17,10.18,2.26,15.41,3.42c0.39-4.38,0.74-8.91,1.19-13.43 c2.39-24.11,6.46-47.9,11.64-71.46c5.32-24.2,10.45-48.47,16.17-72.56c5.81-24.5,12.23-48.83,18.4-73.23 c0.26-1.04,0.67-2.05,1.65-2.92c-5.24,28.54-10.49,57.08-15.73,85.62c0.47,0.13,0.95,0.25,1.42,0.38 c1.9-7.33,3.94-14.61,5.68-21.98c6.69-28.37,12.64-56.98,20.12-85.1c6.3-23.69,14.43-46.82,24.63-68.9 c10.52-22.79,21.1-45.58,32.71-67.71c7.33-13.96,15.96-27.27,25.15-39.87c11.43-15.66,23.54-30.81,36.28-45.22 c14.17-16.03,30.16-29.85,47.4-41.93c12.17-8.52,24.6-16.32,38.44-21.17c1.13-0.4,2.28-0.75,3.81-0.22 c-1.96,1.25-3.85,2.64-5.88,3.73c-15.73,8.51-29.71,19.89-43.45,31.64c-15.29,13.07-28.31,28.64-40.86,44.72 c-13.18,16.88-24.86,34.92-35.16,53.99c-11.8,21.85-23.35,43.87-34.44,66.16c-6.42,12.89-11.72,26.44-17.49,39.71 c-0.26,0.59-0.18,1.36,0.41,2.4c3.84-4.64,7.62-9.35,11.54-13.92c8.24-9.6,16.34-19.35,24.89-28.61 c6.56-7.1,13.39-14.02,20.7-20.16c8.82-7.4,18.05-14.3,27.53-20.67c15.12-10.17,31.01-18.8,47.92-24.89 c8.53-3.07,17.06-6.5,26.78-6.31c-7.21,3.7-14.16,6.74-20.63,10.71c-11.45,7.04-22.77,14.35-33.81,22.13 c-7.79,5.49-15.37,11.49-22.41,18.08c-13.49,12.62-26.72,25.58-39.7,38.82c-13.75,14.04-25.79,29.75-37.07,46.23 C379.96,359.92,372.9,376,367.64,393c-7.3,23.6-14.58,47.25-20.55,71.28c-5.27,21.2-8.75,42.93-12.98,64.44 c-0.24,1.23-0.16,2.55,0.3,4.06c1.24-3.28,2.28-6.68,3.77-9.82c7.06-14.87,13.32-30.31,21.63-44.31 c10.15-17.11,18.3-35.3,27.21-53.09c5.99-11.97,12.59-23.57,18.89-35.35c5.41-10.11,10.59-20.38,16.23-30.33 c9.09-16.04,18.37-31.97,27.79-47.79c4.63-7.78,9.48-15.43,14.69-22.76c7.85-11.04,16.52-21.4,24.06-32.67 c7.18-10.73,16.79-18.37,25.98-26.81C468.48,287.1,438.72,355.1,407.7,422.29c22.28-20.14,46-37.24,73.1-48.29 c-5.83,4.31-11.9,8.28-17.44,12.99c-11.78,10.01-23.46,20.19-34.86,30.71c-6.07,5.61-12.16,11.5-17.04,18.28 c-8.94,12.41-15,26.77-20.56,41.31c-3.69,9.64-7.2,19.37-10.77,29.07c-0.4,1.08-0.63,2.24-0.59,3.62 c26.56-34.24,57.34-62.26,94.85-80.68c0.22,0.32,0.45,0.64,0.67,0.97c-5.54,4.31-11.23,8.42-16.6,12.98 c-14.97,12.69-29.37,26.11-42.03,41.58c-9.19,11.23-18.58,22.34-27.07,34.19c-12.16,16.96-19.24,36.64-23.59,57.56 c-1.22,5.87-2.86,11.63-4.27,17.45c-0.18,0.73-0.16,1.52-0.34,3.52c3.29-5.89,5.87-10.74,8.65-15.45 c6.52-11.06,12.53-22.56,19.83-32.97c12.09-17.26,24.64-34.18,37.79-50.47c5.54-6.87,13.08-11.81,19.76-17.57 c0.63-0.54,1.59-0.62,2.83-0.34c-3.34,3.79-6.92,7.36-9.99,11.4c-9.03,11.91-18.47,23.54-26.63,36.14 c-13.92,21.48-27.31,43.38-40.25,65.58c-5.28,9.05-8.65,19.41-13.15,29.03c-3.47,7.43-7.3,14.67-11.05,21.95 c-0.59,1.14-1.56,2.03-3.02,3.88c-5.8-31.72,0.96-60.47,10.82-88.93c-13.23,23.48-22.4,49-34.19,72.88 c0.37,0.73,0.48,1.17,0.74,1.42c5.99,5.87,5.78,9.17-0.69,14.54c-7.53,6.25-16.45,8.15-25.41,9.59 c-19.28,3.08-38.67,3.72-58.1,1.86c-11.74-1.12-23.3-3.38-34.37-7.88c-2.92-1.19-5.64-3.34-8.06-5.55 c-3.35-3.07-2-8.17,2.53-10.83c1.9-1.12,3.69-2.44,5.5-3.65c-7.27-17.03-14.99-32.66-25.54-46.58c4.12,19.93,6.59,39.9,3.26,61.59 c-26.8-57.48-57.36-110.89-95.11-159.5C87.78,486.79,88.24,486.31,88.7,485.83z M144.05,464.65 c19.75,38.89,39.49,77.79,59.24,116.68c0.39-0.21,0.77-0.42,1.16-0.63c-0.27-1.02-0.44-2.08-0.83-3.04 c-3.93-9.61-7.62-19.34-11.92-28.75c-7.41-16.24-14.67-32.61-23-48.29c-7.03-13.23-15.48-25.56-23.5-38.8 c-1.74-1.98-2.39-5.34-6.44-6.16C140.83,459.09,142.33,461.6,144.05,464.65z M303.01,462.46c1.89-7.18,3.78-14.37,5.84-22.24 c-1.09,0.63-1.54,0.72-1.71,1.01c-6.66,10.78-13.64,21.35-19.84,32.44c-8.01,14.33-14.73,29.42-19.87,45.29 c-0.58,1.79-1.52,3.58-1.59,5.4c-0.69,17.6-0.03,35.18-1.74,52.83c-1.55,15.98-0.33,32.29-0.33,48.45 c0.35,0.03,0.7,0.05,1.05,0.08c0.17-1.17,0.34-2.33,0.51-3.5c0.24,0.2,0.48,0.4,0.71,0.6c0.82-1.01,1.64-2.03,2.45-3.05 c0.17,0.56,0.34,1.12,0.46,1.53c1.99-11.2,3.69-22.42,6-33.49c6.18-29.66,12.51-59.28,18.99-88.87 C296.59,486.9,299.77,475.02,303.01,462.46z M256.76,622.65c0.33-0.81,1.01-1.66,0.93-2.41c-0.64-5.62-1.87-11.2-2.09-16.84 c-0.84-21.67-1.64-43.35-1.83-65.03c-0.06-6.36-1.44-11.64-4.68-16.63c-0.74-1.13-1.39-2.33-2.11-3.47 c-5.06-7.97-10.35-15.71-17.74-21.84c10,41.37,19.47,82.46,20.28,125.02C252.31,621.88,254.3,622.18,256.76,622.65z M290.23,460.16c6.08-9.35,12.26-18.62,18.19-28.09c2.18-3.48,4.28-7.22,5.51-11.18c3.5-11.31,6.55-22.78,9.74-34.21 c0.25-0.91,0.23-1.9,0.4-3.44c-13.61,12.85-55.27,105.78-58.88,128.91C272.71,496.48,281.32,478.57,290.23,460.16z M253.46,509.87 c-0.21-1.06-0.57-2.11-0.6-3.18c-0.18-6.86-2.27-13.03-4.89-19.23c-3.84-9.08-9.46-16.67-15.49-23.92 c-3.67-4.41-7.92-8.23-12.59-13c2.31,10.1,4.1,19.07,6.49,27.84c1.25,4.62,3.12,9.19,5.47,13.26c2.98,5.18,6.74,9.84,10.15,14.73 c3.98,5.7,7.95,11.41,12.22,17.53C253.96,519.07,253.73,514.83,253.46,509.87z M341.76,560.06c10.45-19.8,19.93-40.11,27.96-61.25 c3.67-9.66,8.35-18.87,12.53-28.3c0.66-1.5,1.12-3.1,2.03-5.65c-16.19,14.24-56.32,108.71-53.92,119.19 C334.22,575.96,337.89,568.3,341.76,560.06z M184.85,582.18c3.76,6.46,7.51,12.91,11.27,19.37c0.33-0.24,0.66-0.47,0.98-0.71 c-5.63-15.57-12.48-30.4-21.51-43.91c-0.43,0.23-0.87,0.47-1.3,0.7C177.71,565.64,181.13,573.65,184.85,582.18z M393.91,432.7 c2.4-7.15,4.8-14.3,7.2-21.46c-0.38-0.17-0.76-0.35-1.14-0.52c-6.17,12.77-12.33,25.53-18.5,38.3c0.35,0.27,0.71,0.54,1.06,0.8 C386.77,444.75,390.82,439.5,393.91,432.7z"/> <path d="M385.09,592.13c2.79-6.05,5.25-12.13,8.49-17.67c11.2-19.15,22.45-38.29,34.16-57.07c4.54-7.29,10.35-13.64,15.65-20.37 c0.55-0.69,1.5-1.01,2.59-0.95c-12.82,23.18-25.78,46.26-38.41,69.57c-12.61,23.27-21.03,48.66-30.08,74.86 C374.56,629.82,379.33,601.9,385.09,592.13z"/> <path d="M140.82,607.32c-5.92-13.31-11.14-26.7-17.76-39.21c-12-22.71-24.83-44.9-37.29-67.32c-0.46-0.84-0.76-1.78-1.13-2.68 c0.29-0.25,0.58-0.5,0.87-0.75c1.11,1.12,2.29,2.16,3.31,3.36c17.71,20.86,31.85,44.51,44.59,69.16 c5.59,10.81,10.78,21.95,15.16,33.39c2.23,5.82,2.51,12.61,3.19,19.02c0.46,4.34,0.09,8.79,0.09,13.93 C145.93,627.3,145,616.72,140.82,607.32z"/> <path d="M88.56,485.59c-0.32,0.72-0.78,1.2-1.42,1.85c-2.25-2.21-4.33-4.59-6.41-6.97c0.23-0.26,0.46-0.52,0.69-0.78 C83.76,481.57,86.09,483.46,88.56,485.59z"/> </g> </g> </g>
</svg>